/vscmnt/brussel_pixiu_data/_data_brussel/112/vsc11236/PredSimResults/SUBJ07opt3D/weighted-LRposFixed/trackIG/worker_01.mot
version=1
nRows=8
nColumns=50
inDegrees=yes
endheader
                time	         pelvis_tilt	         pelvis_list	     pelvis_rotation	           pelvis_tx	           pelvis_ty	           pelvis_tz	       hip_flexion_r	     hip_adduction_r	      hip_rotation_r	        knee_angle_r	       ankle_angle_r	         mtp_angle_r	       hip_flexion_l	     hip_adduction_l	      hip_rotation_l	        knee_angle_l	       ankle_angle_l	         mtp_angle_l	    lumbar_extension	      lumbar_bending	     lumbar_rotation	 ercspn_r/activation	 intobl_r/activation	 extobl_r/activation	    abd_r/activation	    add_r/activation	hamstrings_r/activation	bifemsh_r/activation	glut_max_r/activation	iliopsoas_r/activation	rect_fem_r/activation	  vasti_r/activation	gastroc_r/activation	 soleus_r/activation	tib_ant_r/activation	 ercspn_l/activation	 intobl_l/activation	 extobl_l/activation	    abd_l/activation	    add_l/activation	hamstrings_l/activation	bifemsh_l/activation	glut_max_l/activation	iliopsoas_l/activation	rect_fem_l/activation	  vasti_l/activation	gastroc_l/activation	 soleus_l/activation	tib_ant_l/activation	
          1.07895666	         -4.36042759	         -0.45064977	          8.85256024	          1.37027496	          0.84879251	         -0.01262918	         30.68550547	         -2.38759427	         -5.31612303	         -7.10053468	          2.75494913	          0.27300075	        -14.29693724	         -0.40651481	          4.25995421	         -9.31743036	          7.45730696	         29.17568886	        -11.77306009	         -1.21746697	         -1.63151192	          0.13449316	          0.14089356	          0.01000324	          0.01294650	          0.14181071	          0.07893535	          0.12939302	          0.07521687	          0.04130504	          0.01000540	          0.01000109	          0.01000410	          0.01000077	          0.42038331	          0.11116002	          0.01000110	          0.01000193	          0.03109705	          0.03222901	          0.01365155	          0.15480041	          0.01840424	          0.15643075	          0.01001716	          0.01000202	          0.16315619	          0.30556861	          0.01690526	
          1.08974623	         -4.35346394	         -0.39344141	          8.88330978	          1.38642727	          0.84711273	         -0.01221317	         30.61382647	         -2.15664364	         -5.11139781	         -8.73283868	          2.34628960	          0.26882177	        -14.85713145	         -0.48867130	          3.93343216	        -10.24597210	          6.46147285	         30.71660815	        -11.64167493	         -0.88377270	         -1.82812279	          0.11400349	          0.11942008	          0.01000383	          0.01097340	          0.17170247	          0.06690484	          0.10969404	          0.13883991	          0.03500981	          0.01001440	          0.01000437	          0.01392781	          0.01377133	          0.43658275	          0.12532405	          0.01000132	          0.01000325	          0.02635744	          0.06401268	          0.01615481	          0.13121063	          0.01560041	          0.29773340	          0.01020791	          0.01026831	          0.13828865	          0.28589962	          0.01432867	
          1.10053579	         -4.33865997	         -0.33597490	          8.86909107	          1.40277496	          0.84555902	         -0.01177430	         30.40053942	         -1.99905326	         -4.75962971	        -10.34557511	          1.96523315	          0.25216808	        -15.23542883	         -0.55031538	          3.57175431	        -11.54333429	          5.41134941	         32.18900879	        -11.50174294	         -0.53929514	         -2.01452937	          0.12610555	          0.10127462	          0.01000190	          0.07900527	          0.16746811	          0.06630563	          0.11964603	          0.15399340	          0.02967396	          0.01000229	          0.01000049	          0.01180580	          0.01167258	          0.51818812	          0.15065700	          0.01000079	          0.01000311	          0.02234020	          0.05863195	          0.01388687	          0.11121816	          0.01322323	          0.25236207	          0.01001080	          0.01000188	          0.11721120	          0.26376602	          0.01214483	
          1.11132536	         -4.31988209	         -0.26225509	          8.80647616	          1.41912998	          0.84428940	         -0.01124130	         30.10312958	         -1.86009000	         -4.45772233	        -11.79787959	          1.51712841	          0.23564882	        -15.35781220	         -0.57708187	          3.18211110	        -13.30159625	          4.26273648	         33.54744320	        -11.37430271	         -0.21342852	         -2.18652319	          0.14834138	          0.08583919	          0.01000190	          0.13498390	          0.17706155	          0.05956009	          0.10141344	          0.17620300	          0.02515137	          0.01000255	          0.01000057	          0.01000738	          0.01000044	          0.56405639	          0.17653822	          0.01000077	          0.01000242	          0.01893526	          0.05574290	          0.01414445	          0.09427260	          0.01120875	          0.21390421	          0.01001389	          0.01000184	          0.09934629	          0.23424718	          0.01029392	
          1.12211493	         -4.29772403	         -0.17806781	          8.70047442	          1.43530946	          0.84345709	         -0.01062204	         29.82834607	         -1.72889371	         -4.20931965	        -13.30099279	          1.22700303	          0.21297627	        -15.16645604	         -0.57609634	          2.77000077	        -15.58653646	          3.00810010	         34.65152337	        -11.27453438	          0.10126532	         -2.34105795	          0.15590898	          0.07275613	          0.01000156	          0.18435468	          0.19214496	          0.05050993	          0.08595798	          0.20509734	          0.02131808	          0.01000398	          0.01464073	          0.01000446	          0.01000202	          0.56407257	          0.22039051	          0.01000074	          0.01000279	          0.01604929	          0.06142078	          0.01533929	          0.07991115	          0.01000167	          0.18130392	          0.01000681	          0.01000106	          0.08420428	          0.19854452	          0.01000062	
          1.13290449	         -4.27321093	         -0.09158098	          8.55368100	          1.45114937	          0.84322683	         -0.00992958	         29.63691883	         -1.60288621	         -4.01092854	        -14.96558329	          1.26319879	          0.18970944	        -14.60105831	         -0.55627872	          2.33617938	        -18.46732797	          1.65126593	         35.28267847	        -11.21335084	          0.41265237	         -2.47572478	          0.16843265	          0.06166707	          0.01000138	          0.21026958	          0.21543595	          0.04699667	          0.07285839	          0.21982198	          0.01806911	          0.01000384	          0.04726393	          0.01000266	          0.01000069	          0.54536346	          0.25539427	          0.01000073	          0.01000257	          0.01360320	          0.09507363	          0.01592482	          0.06774191	          0.01000119	          0.15367129	          0.01000572	          0.01000067	          0.07137017	          0.16828304	          0.01000079	
          1.14369406	         -4.24774741	         -0.00145004	          8.36619553	          1.46661029	          0.84369112	         -0.00918682	         29.46573503	         -1.47856593	         -3.85295572	        -16.66406729	          1.62863802	          0.17486376	        -13.63054207	         -0.51817875	          1.88440344	        -21.96327544	          0.13598965	         35.27126959	        -11.18560782	          0.71749805	         -2.58792505	          0.16982029	          0.05226811	          0.01000137	          0.22056650	          0.22925185	          0.04393058	          0.06175580	          0.22295277	          0.01531542	          0.01000384	          0.07586279	          0.01000261	          0.01000088	          0.46907607	          0.27388916	          0.01000078	          0.01000253	          0.01153001	          0.12502455	          0.01593314	          0.05743843	          0.01000099	          0.13024990	          0.01000507	          0.01000049	          0.06049220	          0.14263385	          0.01000067	
          1.15448363	         -4.22324771	          0.09218400	          8.13877984	          1.48171375	          0.84483819	         -0.00841088	         29.21818165	         -1.34642352	         -3.70352490	        -18.21566982	          2.30442693	          0.20105907	        -12.26030216	         -0.46748959	          1.43860705	        -25.99866514	         -1.70129860	         34.61093511	        -11.18017764	          1.01301624	         -2.67650597	          0.14394207	          0.04430169	          0.01000129	          0.21795229	          0.23097629	          0.04627169	          0.05234593	          0.20573708	          0.01298160	          0.01000611	          0.11595889	          0.01000508	          0.01000152	          0.39758264	          0.28717202	          0.01000077	          0.01000192	          0.01000045	          0.14522135	          0.01366271	          0.04875301	          0.01000081	          0.11039814	          0.01000471	          0.01000033	          0.05127222	          0.12089401	          0.01000054	
